# xmcd
#
# Track frame offsets:
#	150
#	19223
#	34216
#	44934
#	60332
#	77710
#	89965
#	100945
#	115390
#	127923
#	137261
#	153356
#	165859
#	177859
#	191989
#	201072
#	218742
#	229617
#	239900
#	250813
#
# Disc length: 3513 seconds
#
# Revision: 0
# Processed by: cddbd v1.5.2PL0 Copyright (c) Steve Scherf et al.
# Submitted via: audiograbber 1.83.01
#
DISCID=180db714
DTITLE=Marty Robbins - Marty Robbins Gold 20 Original Hits
DYEAR=1975
DGENRE=Country
TTITLE0=El Paso
TTITLE1=Gone With The Wind
TTITLE2=Singing The Blues
TTITLE3=My Woman, My Woman, My Wife
TTITLE4=Big Iron
TTITLE5=It's A Sin
TTITLE6=A White Sport Coat (And A Pink Carnation)
TTITLE7=I Walk Alone
TTITLE8=Hanging Tree
TTITLE9=Just Married
TTITLE10=Ballad Of The Alamo
TTITLE11=Devil Woman
TTITLE12=Tonight Carmen
TTITLE13=Don't Worry
TTITLE14=Saddle Tramp
TTITLE15=You Gave Me A Mountain
TTITLE16=Story Of My Life
TTITLE17=She Was Only Seventeen (He Was One Year More)
TTITLE18=Ribbon Of Darkness
TTITLE19=Cowboy In The Continental Suit
EXTD=
EXTT0=
EXTT1=
EXTT2=
EXTT3=
EXTT4=
EXTT5=
EXTT6=
EXTT7=
EXTT8=
EXTT9=
EXTT10=
EXTT11=
EXTT12=
EXTT13=
EXTT14=
EXTT15=
EXTT16=
EXTT17=
EXTT18=
EXTT19=
PLAYORDER=
